# xmcd
#
# Track frame offsets: 
#        150
#        16515
#        36949
#        67807
#        103997
#        117406
#        150521
#        170030
#        187874
#        205452
#        228798
#        253766
#        266669
#        287024
#        307929
#
# Disc length: 4386 seconds
#
# Revision: 0
# Processed by: cddbd v1.5.2PL0 Copyright (c) Steve Scherf et al.
# Submitted via: ExactAudioCopy v0.95b4
#
DISCID=c611200f
DTITLE=Eric Clapton - Best Blues n' Ballads
DYEAR=1999
DGENRE=Bues
TTITLE0=Wonderful Tonight
TTITLE1=Tears In Heaven
TTITLE2=Have You Ever Loved A Woman
TTITLE3=Double Trouble
TTITLE4=Blow Wind Blow
TTITLE5=Rambling On My Mind
TTITLE6=Knockin' On Heavens Door
TTITLE7=The Sky Is Crying
TTITLE8=Change The World
TTITLE9=To Make Somebody Happy
TTITLE10=Running On Faith
TTITLE11=Cryin'
TTITLE12=My Father's Eyes
TTITLE13=Layla
TTITLE14=Before You Accuse Me (Take A Look At Yourself)
EXTD=
EXTT0=
EXTT1=
EXTT2=
EXTT3=
EXTT4=
EXTT5=
EXTT6=
EXTT7=
EXTT8=
EXTT9=
EXTT10=
EXTT11=
EXTT12=
EXTT13=
EXTT14=
PLAYORDER=
